<svg width="2" height="4" viewBox="0 0 2 4" fill="none" xmlns="http://www.w3.org/2000/svg">
<path d="M0.68814 3.04281L0.00952814 1.86999C0.00952814 1.86999 0.0643287 1.92917 0.13873 1.87579C0.218731 1.81839 0.269132 1.84019 0.269132 1.84019L0.689739 2.5674L1.11095 1.83919C1.11095 1.83919 1.17875 1.81339 1.22475 1.86559C1.28235 1.94939 1.35795 1.86999 1.35795 1.86999L0.68814 3.04281Z" fill="#FF0000"/>
<path d="M0.687048 0.00195312L1.35786 1.86819C1.35786 1.86819 1.29666 1.94799 1.23006 1.87199C1.17541 1.80963 1.11045 1.84018 1.11045 1.84018L0.688848 0.685965L0.26764 1.84018C0.26764 1.84018 0.205439 1.823 0.141038 1.87439C0.066837 1.93359 0.00683594 1.86819 0.00683594 1.86819L0.687048 0.00195312Z" fill="white"/>
<path fill-rule="evenodd" clip-rule="evenodd" d="M0.687414 3.03425L0.0254071 1.88965C0.0305084 1.89282 0.0364795 1.89593 0.0432343 1.89848C0.0678502 1.90776 0.102304 1.90928 0.141929 1.88001C0.179484 1.85227 0.210899 1.84389 0.232667 1.8423C0.243575 1.8415 0.252126 1.8424 0.257886 1.84347C0.260766 1.84401 0.262949 1.84459 0.26438 1.84503L0.265716 1.84546L0.684904 2.57162L0.689234 2.56912L0.693564 2.56662L0.697902 2.56411L1.11463 1.84325L1.11498 1.84313L1.11718 1.8444L1.11654 1.84265C1.11836 1.84211 1.12069 1.84148 1.12347 1.84086C1.13072 1.83926 1.14092 1.83778 1.15266 1.83829C1.17602 1.8393 1.20561 1.84815 1.2306 1.87998C1.24424 1.89737 1.2595 1.90591 1.27486 1.90857C1.2901 1.91121 1.30492 1.90796 1.31769 1.90271C1.32655 1.89907 1.33456 1.89441 1.34122 1.88989L0.687414 3.03425ZM1.11325 1.83361C1.11535 1.83297 1.1181 1.83222 1.12139 1.83149C1.12926 1.82975 1.14032 1.82815 1.15308 1.8287C1.17872 1.82981 1.21113 1.83964 1.23815 1.87405C1.2505 1.88978 1.26374 1.8969 1.2765 1.89911C1.28938 1.90134 1.30231 1.89866 1.31404 1.89383C1.32575 1.88902 1.336 1.88218 1.34336 1.87649C1.34702 1.87366 1.34994 1.87113 1.35193 1.86932L1.35416 1.86725L1.35418 1.8672L0.687411 0.0157146L0.0123355 1.86691L0.0140163 1.86864C0.0155514 1.87016 0.0178518 1.87229 0.0208537 1.87469C0.0268699 1.87951 0.0356281 1.88535 0.046622 1.8895C0.0683421 1.89769 0.0993493 1.89952 0.136226 1.87229C0.175172 1.84352 0.208308 1.83446 0.231966 1.83272C0.243771 1.83186 0.253151 1.83283 0.259645 1.83404C0.261833 1.83445 0.263692 1.83488 0.265206 1.83528L0.683099 0.68732L0.684536 0.686796L0.689234 0.685084L0.693932 0.683371L1.11325 1.83361ZM0.682923 0.00325279L0.681558 0.00374457L0.0025177 1.86581L0 1.8649L0.00287214 1.86986L0.683284 3.04628L0.687439 3.04388L0.691594 3.04148L0.695696 3.0391L1.36362 1.87004L1.36587 1.87133L1.36397 1.86603L0.691956 0L0.687439 0.00162639L0.682923 0.00325279ZM0.274123 1.84002L0.689237 0.699691L1.10494 1.84002L0.689237 2.55912L0.274123 1.84002Z" fill="black"/>
</svg>
